G75*
%MOIN*%
%OFA0B0*%
%FSLAX24Y24*%
%IPPOS*%
%LPD*%
%AMOC8*
5,1,8,0,0,1.08239X$1,22.5*
%
%ADD10C,0.0160*%
%ADD11C,0.0030*%
%ADD12C,0.0040*%
%ADD13R,0.0669X0.0295*%
%ADD14C,0.0060*%
%ADD15R,0.0690X0.0290*%
%ADD16C,0.0080*%
%ADD17C,0.0050*%
%ADD18C,0.0070*%
%ADD19R,0.0197X0.0256*%
%ADD20C,0.0100*%
%ADD21R,0.0290X0.0690*%
%ADD22R,0.0295X0.0669*%
D10*
X006580Y008359D02*
X006580Y029414D01*
X006745Y029580D02*
X020398Y029580D01*
X020580Y029398D02*
X020580Y008375D01*
X020784Y008580D02*
X006359Y008580D01*
X006091Y008847D02*
X006091Y028926D01*
X007272Y030107D01*
X019871Y030107D01*
X021052Y028926D01*
X021052Y008847D01*
X019871Y007666D01*
X007272Y007666D01*
X006091Y008847D01*
X006091Y009080D02*
X021052Y009080D01*
X021052Y009580D02*
X006091Y009580D01*
X006091Y010080D02*
X021052Y010080D01*
X021052Y010580D02*
X006091Y010580D01*
X006091Y011080D02*
X021052Y011080D01*
X021052Y011580D02*
X006091Y011580D01*
X006091Y012080D02*
X021052Y012080D01*
X021052Y012580D02*
X006091Y012580D01*
X006091Y013080D02*
X021052Y013080D01*
X021052Y013580D02*
X006091Y013580D01*
X006091Y014080D02*
X021052Y014080D01*
X021052Y014580D02*
X006091Y014580D01*
X006091Y015080D02*
X021052Y015080D01*
X021052Y015580D02*
X006091Y015580D01*
X006091Y016080D02*
X021052Y016080D01*
X021052Y016580D02*
X006091Y016580D01*
X006091Y017080D02*
X021052Y017080D01*
X021052Y017580D02*
X006091Y017580D01*
X006091Y018080D02*
X021052Y018080D01*
X021052Y018580D02*
X006091Y018580D01*
X006091Y019080D02*
X021052Y019080D01*
X021052Y019580D02*
X006091Y019580D01*
X006091Y020080D02*
X021052Y020080D01*
X021052Y020580D02*
X006091Y020580D01*
X006091Y021080D02*
X021052Y021080D01*
X021052Y021580D02*
X006091Y021580D01*
X006091Y022080D02*
X021052Y022080D01*
X021052Y022580D02*
X006091Y022580D01*
X006091Y023080D02*
X021052Y023080D01*
X021052Y023580D02*
X006091Y023580D01*
X006091Y024080D02*
X021052Y024080D01*
X021052Y024580D02*
X006091Y024580D01*
X006091Y025080D02*
X021052Y025080D01*
X021052Y025580D02*
X006091Y025580D01*
X006091Y026080D02*
X021052Y026080D01*
X021052Y026580D02*
X006091Y026580D01*
X006091Y027080D02*
X021052Y027080D01*
X021052Y027580D02*
X006091Y027580D01*
X006091Y028080D02*
X021052Y028080D01*
X021052Y028580D02*
X006091Y028580D01*
X006245Y029080D02*
X020898Y029080D01*
X020080Y029898D02*
X020080Y007875D01*
X020284Y008080D02*
X006859Y008080D01*
X007080Y007859D02*
X007080Y029914D01*
X007245Y030080D02*
X019898Y030080D01*
X019580Y030107D02*
X019580Y007666D01*
X019080Y007666D02*
X019080Y030107D01*
X018580Y030107D02*
X018580Y007666D01*
X018080Y007666D02*
X018080Y030107D01*
X017580Y030107D02*
X017580Y007666D01*
X017080Y007666D02*
X017080Y030107D01*
X016580Y030107D02*
X016580Y007666D01*
X016080Y007666D02*
X016080Y030107D01*
X015580Y030107D02*
X015580Y007666D01*
X015080Y007666D02*
X015080Y030107D01*
X014580Y030107D02*
X014580Y007666D01*
X014080Y007666D02*
X014080Y030107D01*
X013580Y030107D02*
X013580Y007666D01*
X013080Y007666D02*
X013080Y030107D01*
X012580Y030107D02*
X012580Y007666D01*
X012080Y007666D02*
X012080Y030107D01*
X011580Y030107D02*
X011580Y007666D01*
X011080Y007666D02*
X011080Y030107D01*
X010580Y030107D02*
X010580Y007666D01*
X010080Y007666D02*
X010080Y030107D01*
X009580Y030107D02*
X009580Y007666D01*
X009080Y007666D02*
X009080Y030107D01*
X008580Y030107D02*
X008580Y007666D01*
X008080Y007666D02*
X008080Y030107D01*
X007580Y030107D02*
X007580Y007666D01*
D11*
X003196Y019216D02*
X002826Y019216D01*
X002826Y019339D02*
X002826Y019093D01*
X002887Y019461D02*
X002826Y019523D01*
X002826Y019646D01*
X002887Y019708D01*
X002949Y019708D01*
X003011Y019646D01*
X003011Y019523D01*
X003073Y019461D01*
X003134Y019461D01*
X003196Y019523D01*
X003196Y019646D01*
X003134Y019708D01*
X003196Y019829D02*
X003073Y019953D01*
X003073Y019891D02*
X003073Y020076D01*
X003196Y020076D02*
X002826Y020076D01*
X002826Y019891D01*
X002887Y019829D01*
X003011Y019829D01*
X003073Y019891D01*
X003739Y021022D02*
X003739Y021146D01*
X003739Y021084D02*
X004109Y021084D01*
X004109Y021146D02*
X004109Y021022D01*
X004048Y021267D02*
X004109Y021329D01*
X004109Y021452D01*
X004048Y021514D01*
X004048Y021636D02*
X003801Y021636D01*
X003739Y021697D01*
X003739Y021821D01*
X003801Y021882D01*
X004048Y021882D01*
X004109Y021821D01*
X004109Y021697D01*
X004048Y021636D01*
X003924Y021452D02*
X003924Y021329D01*
X003986Y021267D01*
X004048Y021267D01*
X003924Y021452D02*
X003863Y021514D01*
X003801Y021514D01*
X003739Y021452D01*
X003739Y021329D01*
X003801Y021267D01*
X003739Y022004D02*
X004109Y022004D01*
X004109Y022251D02*
X003739Y022251D01*
X003863Y022127D01*
X003739Y022004D01*
X003801Y022552D02*
X004048Y022799D01*
X004048Y023044D02*
X003678Y023044D01*
X003678Y023167D02*
X003678Y022921D01*
X003801Y022799D02*
X004048Y022552D01*
X003108Y024464D02*
X002861Y024464D01*
X002799Y024526D01*
X002799Y024711D01*
X003169Y024711D01*
X003169Y024526D01*
X003108Y024464D01*
X003169Y024833D02*
X002799Y024833D01*
X002799Y025079D02*
X003169Y024833D01*
X003169Y025079D02*
X002799Y025079D01*
X002861Y025201D02*
X002799Y025263D01*
X002799Y025386D01*
X002861Y025448D01*
X003108Y025448D01*
X003169Y025386D01*
X003169Y025263D01*
X003108Y025201D01*
X002984Y025201D01*
X002984Y025324D01*
X002142Y025364D02*
X002019Y025240D01*
X001772Y025240D01*
X001834Y025119D02*
X002081Y025119D01*
X002142Y025057D01*
X002142Y024934D01*
X002081Y024872D01*
X002081Y024750D02*
X002142Y024689D01*
X002142Y024565D01*
X002081Y024504D01*
X002081Y024750D02*
X001834Y024750D01*
X001772Y024689D01*
X001772Y024565D01*
X001834Y024504D01*
X001834Y024872D02*
X001772Y024934D01*
X001772Y025057D01*
X001834Y025119D01*
X001772Y025487D02*
X002019Y025487D01*
X002142Y025364D01*
X001142Y023216D02*
X000772Y023216D01*
X000772Y023031D01*
X000834Y022969D01*
X000957Y022969D01*
X001019Y023031D01*
X001019Y023216D01*
X001019Y023093D02*
X001142Y022969D01*
X001142Y022848D02*
X000896Y022601D01*
X001142Y022601D02*
X000896Y022848D01*
X000865Y021870D02*
X000989Y021746D01*
X000865Y021623D01*
X001235Y021623D01*
X001235Y021501D02*
X001235Y021378D01*
X001235Y021440D02*
X000865Y021440D01*
X000865Y021501D02*
X000865Y021378D01*
X000927Y021256D02*
X000989Y021256D01*
X001050Y021194D01*
X001050Y021071D01*
X001112Y021009D01*
X001174Y021009D01*
X001235Y021071D01*
X001235Y021194D01*
X001174Y021256D01*
X000927Y021256D02*
X000865Y021194D01*
X000865Y021071D01*
X000927Y021009D01*
X000927Y020888D02*
X001174Y020888D01*
X001235Y020826D01*
X001235Y020702D01*
X001174Y020641D01*
X000927Y020641D01*
X000865Y020702D01*
X000865Y020826D01*
X000927Y020888D01*
X000865Y021870D02*
X001235Y021870D01*
X001845Y020054D02*
X001907Y020054D01*
X001968Y019992D01*
X001968Y019869D01*
X002030Y019807D01*
X002092Y019807D01*
X002154Y019869D01*
X002154Y019992D01*
X002092Y020054D01*
X001845Y020054D02*
X001783Y019992D01*
X001783Y019869D01*
X001845Y019807D01*
X001845Y019686D02*
X002092Y019686D01*
X002154Y019624D01*
X002154Y019501D01*
X002092Y019439D01*
X002154Y019317D02*
X001783Y019317D01*
X001845Y019439D02*
X001783Y019501D01*
X001783Y019624D01*
X001845Y019686D01*
X002030Y019317D02*
X001783Y019071D01*
X001968Y019256D02*
X002154Y019071D01*
X011797Y031300D02*
X011797Y031670D01*
X011982Y031485D01*
X011735Y031485D01*
X012103Y031362D02*
X012103Y031670D01*
X012350Y031670D02*
X012350Y031362D01*
X012288Y031300D01*
X012165Y031300D01*
X012103Y031362D01*
D12*
X017769Y031920D02*
X017769Y032074D01*
X017846Y032151D01*
X017769Y032304D02*
X018229Y032304D01*
X017769Y032611D01*
X018229Y032611D01*
X018152Y032764D02*
X018229Y032841D01*
X018229Y032995D01*
X018152Y033071D01*
X018076Y033071D01*
X017769Y032764D01*
X017769Y033071D01*
X018152Y032151D02*
X018229Y032074D01*
X018229Y031920D01*
X018152Y031844D01*
X017846Y031844D01*
X017769Y031920D01*
X018705Y031746D02*
X018705Y031593D01*
X018781Y031516D01*
X018705Y031362D02*
X018705Y031056D01*
X019012Y031362D01*
X019088Y031362D01*
X019165Y031286D01*
X019165Y031132D01*
X019088Y031056D01*
X019088Y030902D02*
X018935Y030902D01*
X018858Y030825D01*
X018858Y030595D01*
X018705Y030595D02*
X019165Y030595D01*
X019165Y030825D01*
X019088Y030902D01*
X018858Y030749D02*
X018705Y030902D01*
X019088Y031516D02*
X019165Y031593D01*
X019165Y031746D01*
X019088Y031823D01*
X019012Y031823D01*
X018935Y031746D01*
X018858Y031823D01*
X018781Y031823D01*
X018705Y031746D01*
X018935Y031746D02*
X018935Y031669D01*
X023882Y033839D02*
X024342Y033839D01*
X024342Y034069D01*
X024265Y034146D01*
X024112Y034146D01*
X024035Y034069D01*
X024035Y033839D01*
X024035Y033993D02*
X023882Y034146D01*
X023882Y034300D02*
X023882Y034607D01*
X023882Y034453D02*
X024342Y034453D01*
X024189Y034300D01*
X024265Y034760D02*
X023959Y034760D01*
X024265Y035067D01*
X023959Y035067D01*
X023882Y034990D01*
X023882Y034837D01*
X023959Y034760D01*
X024265Y034760D02*
X024342Y034837D01*
X024342Y034990D01*
X024265Y035067D01*
X026857Y034827D02*
X026933Y034903D01*
X027240Y034903D01*
X027317Y034827D01*
X027317Y034673D01*
X027240Y034597D01*
X027164Y034597D01*
X027087Y034673D01*
X027087Y034903D01*
X026857Y034827D02*
X026857Y034673D01*
X026933Y034597D01*
X026857Y034443D02*
X027010Y034290D01*
X027010Y034366D02*
X027010Y034136D01*
X026857Y034136D02*
X027317Y034136D01*
X027317Y034366D01*
X027240Y034443D01*
X027087Y034443D01*
X027010Y034366D01*
X025379Y031724D02*
X025149Y031724D01*
X025072Y031647D01*
X025072Y031494D01*
X025149Y031417D01*
X025379Y031417D01*
X025379Y031264D02*
X025379Y031724D01*
X025226Y031417D02*
X025072Y031264D01*
X024919Y031264D02*
X024919Y031340D01*
X024612Y031647D01*
X024612Y031724D01*
X024919Y031724D01*
X025149Y030228D02*
X025072Y030151D01*
X025072Y029998D01*
X025149Y029921D01*
X025379Y029921D01*
X025226Y029921D02*
X025072Y029768D01*
X024919Y029844D02*
X024919Y029998D01*
X024689Y029998D01*
X024612Y029921D01*
X024612Y029844D01*
X024689Y029768D01*
X024842Y029768D01*
X024919Y029844D01*
X024919Y029998D02*
X024765Y030151D01*
X024612Y030228D01*
X025149Y030228D02*
X025379Y030228D01*
X025379Y029768D01*
X028034Y025102D02*
X028794Y025102D01*
X028794Y024482D02*
X028034Y024482D01*
X028124Y024323D02*
X028355Y024092D01*
X028048Y024092D01*
X028124Y023862D02*
X028124Y024323D01*
X028661Y024323D02*
X028661Y023862D01*
X028508Y023862D02*
X028815Y023862D01*
X028968Y023939D02*
X029045Y023862D01*
X029199Y023862D01*
X029275Y023939D01*
X029275Y024246D01*
X029199Y024323D01*
X029045Y024323D01*
X028968Y024246D01*
X028815Y024169D02*
X028661Y024323D01*
X029950Y025262D02*
X030257Y025262D01*
X029950Y025569D01*
X029950Y025646D01*
X030027Y025723D01*
X030180Y025723D01*
X030257Y025646D01*
X030564Y025723D02*
X030564Y025262D01*
X030717Y025262D02*
X030410Y025262D01*
X030318Y025102D02*
X031078Y025102D01*
X031101Y025262D02*
X030947Y025262D01*
X030871Y025339D01*
X031101Y025262D02*
X031178Y025339D01*
X031178Y025646D01*
X031101Y025723D01*
X030947Y025723D01*
X030871Y025646D01*
X030717Y025569D02*
X030564Y025723D01*
X030318Y024482D02*
X031078Y024482D01*
X031101Y021589D02*
X031178Y021512D01*
X031178Y021205D01*
X031101Y021128D01*
X030947Y021128D01*
X030871Y021205D01*
X030717Y021128D02*
X030410Y021128D01*
X030564Y021128D02*
X030564Y021589D01*
X030717Y021435D01*
X030871Y021512D02*
X030947Y021589D01*
X031101Y021589D01*
X031078Y020968D02*
X030318Y020968D01*
X030180Y021128D02*
X030257Y021205D01*
X030180Y021128D02*
X030027Y021128D01*
X029950Y021205D01*
X029950Y021282D01*
X030027Y021358D01*
X030103Y021358D01*
X030027Y021358D02*
X029950Y021435D01*
X029950Y021512D01*
X030027Y021589D01*
X030180Y021589D01*
X030257Y021512D01*
X030318Y020348D02*
X031078Y020348D01*
X029236Y020112D02*
X029236Y019805D01*
X029159Y019728D01*
X029006Y019728D01*
X028929Y019805D01*
X028776Y019728D02*
X028469Y019728D01*
X028622Y019728D02*
X028622Y020189D01*
X028776Y020035D01*
X028929Y020112D02*
X029006Y020189D01*
X029159Y020189D01*
X029236Y020112D01*
X028755Y020348D02*
X027995Y020348D01*
X028008Y020189D02*
X028315Y020189D01*
X028315Y019958D01*
X028162Y020035D01*
X028085Y020035D01*
X028008Y019958D01*
X028008Y019805D01*
X028085Y019728D01*
X028238Y019728D01*
X028315Y019805D01*
X027995Y020968D02*
X028755Y020968D01*
X025762Y022345D02*
X025762Y022575D01*
X025685Y022652D01*
X025532Y022652D01*
X025455Y022575D01*
X025455Y022345D01*
X025455Y022498D02*
X025301Y022652D01*
X025301Y022805D02*
X025301Y023112D01*
X025301Y022959D02*
X025762Y022959D01*
X025608Y022805D01*
X025685Y023266D02*
X025762Y023342D01*
X025762Y023496D01*
X025685Y023573D01*
X025608Y023573D01*
X025301Y023266D01*
X025301Y023573D01*
X025301Y022345D02*
X025762Y022345D01*
X025682Y012770D02*
X025606Y012693D01*
X025606Y012540D01*
X025682Y012463D01*
X025913Y012463D01*
X025913Y012309D02*
X025913Y012770D01*
X025682Y012770D01*
X025452Y012770D02*
X025452Y012540D01*
X025299Y012616D01*
X025222Y012616D01*
X025145Y012540D01*
X025145Y012386D01*
X025222Y012309D01*
X025376Y012309D01*
X025452Y012386D01*
X025606Y012309D02*
X025759Y012463D01*
X025452Y012770D02*
X025145Y012770D01*
X025222Y011352D02*
X025452Y011122D01*
X025145Y011122D01*
X025222Y010892D02*
X025222Y011352D01*
X025606Y011276D02*
X025606Y011122D01*
X025682Y011046D01*
X025913Y011046D01*
X025759Y011046D02*
X025606Y010892D01*
X025913Y010892D02*
X025913Y011352D01*
X025682Y011352D01*
X025606Y011276D01*
X025682Y009935D02*
X025606Y009858D01*
X025606Y009705D01*
X025682Y009628D01*
X025913Y009628D01*
X025913Y009475D02*
X025913Y009935D01*
X025682Y009935D01*
X025452Y009858D02*
X025376Y009935D01*
X025222Y009935D01*
X025145Y009858D01*
X025145Y009782D01*
X025222Y009705D01*
X025145Y009628D01*
X025145Y009551D01*
X025222Y009475D01*
X025376Y009475D01*
X025452Y009551D01*
X025606Y009475D02*
X025759Y009628D01*
X025299Y009705D02*
X025222Y009705D01*
X029486Y008400D02*
X029486Y007939D01*
X029409Y008169D02*
X029716Y008169D01*
X029486Y008400D01*
X030023Y008400D02*
X030023Y007939D01*
X029870Y007939D02*
X030177Y007939D01*
X030330Y007939D02*
X030484Y008093D01*
X030407Y008093D02*
X030637Y008093D01*
X030637Y007939D02*
X030637Y008400D01*
X030407Y008400D01*
X030330Y008323D01*
X030330Y008169D01*
X030407Y008093D01*
X030177Y008246D02*
X030023Y008400D01*
X030023Y006628D02*
X030023Y006168D01*
X029870Y006168D02*
X030177Y006168D01*
X030330Y006168D02*
X030484Y006321D01*
X030407Y006321D02*
X030637Y006321D01*
X030637Y006168D02*
X030637Y006628D01*
X030407Y006628D01*
X030330Y006551D01*
X030330Y006398D01*
X030407Y006321D01*
X030177Y006475D02*
X030023Y006628D01*
X029716Y006628D02*
X029716Y006398D01*
X029563Y006475D01*
X029486Y006475D01*
X029409Y006398D01*
X029409Y006244D01*
X029486Y006168D01*
X029640Y006168D01*
X029716Y006244D01*
X029716Y006628D02*
X029409Y006628D01*
X021067Y005255D02*
X021067Y004495D01*
X020447Y004495D02*
X020447Y005255D01*
X020287Y005165D02*
X020210Y005241D01*
X020134Y005241D01*
X020057Y005165D01*
X019980Y005241D01*
X019903Y005241D01*
X019827Y005165D01*
X019827Y005011D01*
X019903Y004934D01*
X019903Y004781D02*
X019827Y004704D01*
X019827Y004551D01*
X019903Y004474D01*
X020210Y004474D01*
X020287Y004551D01*
X020287Y004704D01*
X020210Y004781D01*
X020210Y004934D02*
X020287Y005011D01*
X020287Y005165D01*
X020057Y005165D02*
X020057Y005088D01*
X019157Y004954D02*
X019157Y004648D01*
X019081Y004571D01*
X018927Y004571D01*
X018850Y004648D01*
X018697Y004571D02*
X018390Y004571D01*
X018543Y004571D02*
X018543Y005031D01*
X018697Y004878D01*
X018850Y004954D02*
X018927Y005031D01*
X019081Y005031D01*
X019157Y004954D01*
X018676Y005191D02*
X017916Y005191D01*
X018006Y005031D02*
X018160Y005031D01*
X018236Y004954D01*
X018236Y004878D01*
X018160Y004801D01*
X017930Y004801D01*
X017930Y004648D02*
X017930Y004954D01*
X018006Y005031D01*
X017930Y004648D02*
X018006Y004571D01*
X018160Y004571D01*
X018236Y004648D01*
X017916Y004433D02*
X018676Y004433D01*
X018676Y003813D02*
X017916Y003813D01*
X018006Y003653D02*
X017930Y003576D01*
X017930Y003500D01*
X018006Y003423D01*
X018160Y003423D01*
X018236Y003500D01*
X018236Y003576D01*
X018160Y003653D01*
X018006Y003653D01*
X018006Y003423D02*
X017930Y003346D01*
X017930Y003270D01*
X018006Y003193D01*
X018160Y003193D01*
X018236Y003270D01*
X018236Y003346D01*
X018160Y003423D01*
X018390Y003193D02*
X018697Y003193D01*
X018543Y003193D02*
X018543Y003653D01*
X018697Y003500D01*
X018850Y003576D02*
X018927Y003653D01*
X019081Y003653D01*
X019157Y003576D01*
X019157Y003270D01*
X019081Y003193D01*
X018927Y003193D01*
X018850Y003270D01*
X018676Y005811D02*
X017916Y005811D01*
D13*
X020757Y005397D03*
X020756Y004352D03*
D14*
X025008Y008685D02*
X025763Y008685D01*
X025763Y009325D02*
X025008Y009325D01*
X025008Y010102D02*
X025763Y010102D01*
X025763Y010742D02*
X025008Y010742D01*
X025008Y011519D02*
X025763Y011519D01*
X025763Y012159D02*
X025008Y012159D01*
X029732Y007789D02*
X030487Y007789D01*
X030487Y007149D02*
X029732Y007149D01*
X029732Y006018D02*
X030487Y006018D01*
X030487Y005378D02*
X029732Y005378D01*
X025151Y022495D02*
X025151Y023250D01*
X024511Y023250D02*
X024511Y022495D01*
X024648Y030378D02*
X025403Y030378D01*
X025403Y031018D02*
X024648Y031018D01*
X024648Y031874D02*
X025403Y031874D01*
X025403Y032514D02*
X024648Y032514D01*
X024492Y034275D02*
X024492Y035030D01*
X025132Y035030D02*
X025132Y034275D01*
X026067Y034286D02*
X026067Y035041D01*
X026707Y035041D02*
X026707Y034286D01*
X019955Y031786D02*
X019955Y031031D01*
X019315Y031031D02*
X019315Y031786D01*
X012548Y031800D02*
X012548Y031170D01*
X011446Y031170D01*
X011446Y031800D01*
X012548Y031800D01*
D15*
X019635Y031926D03*
X019635Y030886D03*
X024812Y034130D03*
X024812Y035170D03*
X026387Y035186D03*
X026387Y034146D03*
X024831Y023395D03*
X024831Y022355D03*
D16*
X017233Y031249D02*
X015265Y031249D01*
X015265Y034398D01*
X017233Y034398D01*
X017233Y031249D01*
X012497Y031316D02*
X012497Y031654D01*
X012103Y031206D02*
X011891Y031206D01*
X011497Y031316D02*
X011497Y031654D01*
D17*
X015265Y031249D02*
X016052Y031249D01*
X015265Y031249D02*
X015265Y032135D01*
X015265Y033513D02*
X015265Y034398D01*
X016052Y034398D01*
X017233Y033709D02*
X017233Y031938D01*
D18*
X014293Y033875D02*
X013966Y033875D01*
X014129Y034038D02*
X014129Y033711D01*
X014129Y032080D02*
X014129Y031753D01*
D19*
X012371Y031948D03*
X011997Y031948D03*
X011623Y031948D03*
X011623Y031022D03*
X012371Y031022D03*
D20*
X011367Y031885D03*
D21*
X024508Y032194D03*
X025548Y032194D03*
X025548Y030698D03*
X024508Y030698D03*
X024863Y011839D03*
X025903Y011839D03*
X025903Y010422D03*
X024863Y010422D03*
X024863Y009005D03*
X025903Y009005D03*
X029587Y007469D03*
X030627Y007469D03*
X030627Y005698D03*
X029587Y005698D03*
D22*
X018818Y005500D03*
X017774Y005501D03*
X017774Y004123D03*
X018818Y004122D03*
X027852Y020659D03*
X028897Y020658D03*
X030175Y020659D03*
X031220Y020658D03*
X031220Y024792D03*
X030175Y024792D03*
X028937Y024792D03*
X027892Y024792D03*
M02*
