G75*
%MOIN*%
%OFA0B0*%
%FSLAX24Y24*%
%IPPOS*%
%LPD*%
%AMOC8*
5,1,8,0,0,1.08239X$1,22.5*
%
%ADD10C,0.1300*%
%ADD11R,0.0257X0.0512*%
%ADD12R,0.0650X0.0552*%
%ADD13OC8,0.0640*%
%ADD14R,0.0749X0.0670*%
%ADD15R,0.0840X0.0740*%
%ADD16R,0.0750X0.0670*%
%ADD17R,0.0670X0.0749*%
%ADD18R,0.0906X0.0276*%
%ADD19R,0.0670X0.0750*%
%ADD20R,0.0650X0.0670*%
%ADD21R,0.0709X0.1024*%
%ADD22R,0.1024X0.0709*%
%ADD23OC8,0.1040*%
%ADD24C,0.0700*%
%ADD25C,0.1340*%
%ADD26C,0.2340*%
%ADD27C,0.0634*%
%ADD28C,0.0080*%
%ADD29R,0.1040X0.0631*%
%ADD30C,0.0591*%
%ADD31R,0.0434X0.1221*%
%ADD32C,0.0820*%
%ADD33R,0.0355X0.0394*%
%ADD34R,0.0555X0.0555*%
%ADD35C,0.0555*%
%ADD36R,0.0473X0.0197*%
%ADD37R,0.0540X0.0619*%
%ADD38R,0.1650X0.0490*%
%ADD39R,0.0827X0.0434*%
%ADD40R,0.0434X0.0749*%
%ADD41R,0.0631X0.0237*%
%ADD42R,0.0237X0.0631*%
%ADD43R,0.0591X0.0591*%
D10*
X013572Y006485D03*
X005028Y022824D03*
X022154Y022863D03*
D11*
X019465Y005296D03*
X018717Y005296D03*
X018717Y004272D03*
X019091Y004272D03*
X019465Y004272D03*
D12*
X023337Y022036D03*
X023337Y023808D03*
X026467Y023808D03*
X026467Y022036D03*
D13*
X028532Y022206D03*
X028532Y023206D03*
X030698Y023245D03*
X030698Y022245D03*
X028835Y028170D03*
X028835Y029170D03*
X027835Y029170D03*
X027835Y028170D03*
X027835Y030170D03*
X027835Y031170D03*
X027835Y032170D03*
X027835Y033170D03*
X027835Y034170D03*
X027835Y035170D03*
X028835Y035170D03*
X028835Y034170D03*
X028835Y033170D03*
X028835Y032170D03*
X028835Y031170D03*
X028835Y030170D03*
X018296Y037481D03*
X018296Y038481D03*
X002969Y023678D03*
X002969Y022678D03*
X001969Y022678D03*
X001969Y023678D03*
X001969Y021678D03*
X001969Y020678D03*
X002969Y020678D03*
X002969Y021678D03*
X002942Y009150D03*
X001957Y009150D03*
X001957Y008150D03*
X002942Y008150D03*
X006922Y003639D03*
X006922Y002639D03*
X007922Y002639D03*
X007922Y003639D03*
X008922Y003639D03*
X008922Y002639D03*
X009922Y002639D03*
X009922Y003639D03*
X010922Y003639D03*
X010922Y002639D03*
X011922Y002639D03*
X011922Y003639D03*
X012922Y003639D03*
X012922Y002639D03*
X013922Y002639D03*
X013922Y003639D03*
D14*
X013560Y013690D03*
X013560Y014792D03*
X015461Y016879D03*
X015461Y017981D03*
X009938Y014867D03*
X009938Y013765D03*
X008454Y013808D03*
X008454Y014910D03*
X005383Y020217D03*
X005383Y021320D03*
D15*
X011749Y014882D03*
X011749Y013182D03*
D16*
X008060Y022343D03*
X008060Y023462D03*
X006643Y023462D03*
X006643Y022343D03*
X003532Y027461D03*
X003532Y028580D03*
X001761Y028580D03*
X001761Y027461D03*
X001682Y031437D03*
X001682Y032557D03*
X003296Y032596D03*
X003296Y031476D03*
X024812Y034079D03*
X024812Y035198D03*
X026387Y035206D03*
X026387Y034087D03*
D17*
X018800Y031872D03*
X017698Y031872D03*
X017666Y030383D03*
X018769Y030383D03*
X017509Y027351D03*
X016406Y027351D03*
X014950Y027351D03*
X013847Y027351D03*
X012391Y027351D03*
X011288Y027351D03*
X009792Y027351D03*
X008690Y027351D03*
X006957Y027351D03*
X005855Y027351D03*
X011446Y031485D03*
X012548Y031485D03*
X012548Y033099D03*
X011446Y033099D03*
X017391Y035855D03*
X018493Y035855D03*
X018729Y008257D03*
X019831Y008257D03*
D18*
X021091Y009550D03*
X021091Y010050D03*
X021091Y010550D03*
X021091Y011050D03*
X021091Y011550D03*
X021091Y012050D03*
X021091Y012550D03*
X021091Y013050D03*
X021091Y013550D03*
X021091Y014050D03*
X017469Y014050D03*
X017469Y013550D03*
X017469Y013050D03*
X017469Y012550D03*
X017469Y012050D03*
X017469Y011550D03*
X017469Y011050D03*
X017469Y010550D03*
X017469Y010050D03*
X017469Y009550D03*
D19*
X012557Y029950D03*
X011437Y029950D03*
X014311Y030855D03*
X015431Y030855D03*
X012557Y034635D03*
X011437Y034635D03*
X011437Y036800D03*
X012557Y036800D03*
X014232Y035894D03*
X015352Y035894D03*
X012557Y038769D03*
X011437Y038769D03*
X020374Y035855D03*
X021494Y035855D03*
X024469Y032194D03*
X025588Y032194D03*
X025588Y030698D03*
X024469Y030698D03*
D20*
X024792Y007263D03*
X026761Y007263D03*
X026761Y001770D03*
X024792Y001770D03*
D21*
X021091Y015461D03*
X019595Y015461D03*
D22*
X015973Y013808D03*
X015973Y012312D03*
D23*
X025851Y016328D03*
X028851Y016328D03*
D24*
X026269Y036807D03*
X026269Y037587D03*
X025284Y037587D03*
X025284Y036807D03*
D25*
X023406Y038657D03*
X028146Y038657D03*
D26*
X001800Y001800D03*
X020855Y001800D03*
X030658Y001800D03*
X030658Y038729D03*
X020855Y038729D03*
X001800Y038729D03*
D27*
X014556Y038119D03*
X015540Y038119D03*
X016524Y038119D03*
X016524Y039418D03*
X015540Y039419D03*
X014556Y039418D03*
X007194Y006820D03*
X006209Y006820D03*
X005225Y006820D03*
X005225Y005520D03*
X006209Y005520D03*
X007194Y005520D03*
D28*
X002921Y034278D02*
X002824Y034269D01*
X002726Y034278D01*
X002631Y034303D01*
X002542Y034344D01*
X002462Y034401D01*
X002393Y034470D01*
X002336Y034550D01*
X002295Y034639D01*
X002270Y034734D01*
X002261Y034831D01*
X002270Y034929D01*
X002295Y035024D01*
X002336Y035113D01*
X002393Y035193D01*
X002462Y035262D01*
X002542Y035319D01*
X002631Y035360D01*
X002726Y035385D01*
X002824Y035394D01*
X002921Y035385D01*
X003016Y035360D01*
X003105Y035319D01*
X003185Y035262D01*
X003255Y035193D01*
X003311Y035113D01*
X003352Y035024D01*
X003378Y034929D01*
X003386Y034831D01*
X003378Y034734D01*
X003352Y034639D01*
X003311Y034550D01*
X003255Y034470D01*
X003185Y034401D01*
X003105Y034344D01*
X003016Y034303D01*
X002921Y034278D01*
X003084Y034335D02*
X002563Y034335D01*
X002450Y034413D02*
X003198Y034413D01*
X003270Y034492D02*
X002378Y034492D01*
X002327Y034570D02*
X003320Y034570D01*
X003355Y034649D02*
X002292Y034649D01*
X002271Y034727D02*
X003376Y034727D01*
X003384Y034806D02*
X002263Y034806D01*
X002266Y034884D02*
X003382Y034884D01*
X003369Y034963D02*
X002279Y034963D01*
X002303Y035041D02*
X003344Y035041D01*
X003306Y035120D02*
X002341Y035120D01*
X002398Y035198D02*
X003249Y035198D01*
X003165Y035277D02*
X002482Y035277D01*
X002621Y035355D02*
X003027Y035355D01*
D29*
X024398Y011249D03*
X024398Y010422D03*
X024398Y009595D03*
X026367Y009595D03*
X026367Y010422D03*
X026367Y011249D03*
D30*
X028977Y010422D03*
X029977Y010422D03*
X004690Y012784D03*
X002690Y012784D03*
D31*
X003190Y010816D03*
X004190Y010816D03*
X005190Y010816D03*
X002190Y010816D03*
D32*
X002347Y006491D02*
X001567Y006491D01*
X001567Y004511D02*
X002347Y004511D01*
D33*
X001839Y029713D03*
X001465Y030540D03*
X002213Y030540D03*
X003198Y030540D03*
X003572Y029713D03*
X003946Y030540D03*
D34*
X006121Y031825D03*
X009121Y031825D03*
D35*
X008121Y031825D03*
X008121Y030825D03*
X009121Y030825D03*
X007121Y030825D03*
X007121Y031825D03*
X006121Y030825D03*
D36*
X017213Y032833D03*
X017213Y033089D03*
X017213Y033345D03*
X017213Y033601D03*
X018985Y033601D03*
X018985Y033345D03*
X018985Y033089D03*
X018985Y032833D03*
D37*
X015678Y032548D03*
X015678Y033887D03*
X013985Y033887D03*
X013985Y032548D03*
D38*
X020894Y032559D03*
X020894Y033719D03*
D39*
X010245Y033536D03*
X010245Y032946D03*
X010245Y032355D03*
X010245Y031765D03*
X010245Y031174D03*
X010245Y030583D03*
X010245Y029993D03*
X010245Y034127D03*
X010245Y034717D03*
X010245Y035308D03*
X010245Y035898D03*
X010245Y036489D03*
X010245Y037080D03*
X005127Y037080D03*
X005127Y036489D03*
X005127Y035898D03*
X005127Y035308D03*
X005127Y034717D03*
X005127Y034127D03*
X005127Y033536D03*
X005127Y032946D03*
X005127Y032355D03*
X005127Y031765D03*
X005127Y031174D03*
X005127Y030583D03*
X005127Y029993D03*
D40*
X005619Y029304D03*
X006209Y029304D03*
X006800Y029304D03*
X007391Y029304D03*
X007981Y029304D03*
X008572Y029304D03*
X009162Y029304D03*
X009753Y029304D03*
D41*
X010115Y021902D03*
X010115Y021587D03*
X010115Y021272D03*
X010115Y020957D03*
X010115Y020643D03*
X010115Y020328D03*
X010115Y020013D03*
X010115Y019698D03*
X010115Y019383D03*
X010115Y019068D03*
X010115Y018753D03*
X014682Y018753D03*
X014682Y019068D03*
X014682Y019383D03*
X014682Y019698D03*
X014682Y020013D03*
X014682Y020328D03*
X014682Y020643D03*
X014682Y020957D03*
X014682Y021272D03*
X014682Y021587D03*
X014682Y021902D03*
D42*
X013973Y022611D03*
X013658Y022611D03*
X013343Y022611D03*
X013028Y022611D03*
X012713Y022611D03*
X012398Y022611D03*
X012083Y022611D03*
X011769Y022611D03*
X011454Y022611D03*
X011139Y022611D03*
X010824Y022611D03*
X010824Y018044D03*
X011139Y018044D03*
X011454Y018044D03*
X011769Y018044D03*
X012083Y018044D03*
X012398Y018044D03*
X012713Y018044D03*
X013028Y018044D03*
X013343Y018044D03*
X013658Y018044D03*
X013973Y018044D03*
D43*
X022627Y031032D03*
X022627Y032528D03*
M02*
