G75*
%MOIN*%
%OFA0B0*%
%FSLAX24Y24*%
%IPPOS*%
%LPD*%
%AMOC8*
5,1,8,0,0,1.08239X$1,22.5*
%
%ADD10R,0.0709X0.0630*%
%ADD11R,0.0710X0.0630*%
%ADD12R,0.2165X0.0394*%
%ADD13R,0.1339X0.0630*%
%ADD14R,0.0217X0.0472*%
%ADD15R,0.0630X0.0710*%
%ADD16R,0.0630X0.0709*%
D10*
X020757Y004324D03*
X020757Y005426D03*
D11*
X024831Y022315D03*
X024831Y023435D03*
X019635Y030846D03*
X019635Y031966D03*
X024812Y034091D03*
X024812Y035210D03*
X026387Y035226D03*
X026387Y034106D03*
D12*
X015540Y033217D03*
X015540Y032430D03*
D13*
X016249Y031485D03*
X016249Y034162D03*
D14*
X012371Y031997D03*
X011997Y031997D03*
X011623Y031997D03*
X011623Y030973D03*
X012371Y030973D03*
D15*
X024469Y030698D03*
X025588Y030698D03*
X025588Y032194D03*
X024469Y032194D03*
X024823Y011839D03*
X025943Y011839D03*
X025943Y010422D03*
X024823Y010422D03*
X024823Y009005D03*
X025943Y009005D03*
X029547Y007469D03*
X030667Y007469D03*
X030667Y005698D03*
X029547Y005698D03*
D16*
X017745Y004123D03*
X017745Y005501D03*
X018847Y005501D03*
X018847Y004123D03*
X027824Y020658D03*
X028926Y020658D03*
X030146Y020658D03*
X031249Y020658D03*
X031249Y024792D03*
X030146Y024792D03*
X028965Y024792D03*
X027863Y024792D03*
M02*
