G75*
%MOIN*%
%OFA0B0*%
%FSLAX24Y24*%
%IPPOS*%
%LPD*%
%AMOC8*
5,1,8,0,0,1.08239X$1,22.5*
%
%ADD10R,0.0217X0.0472*%
%ADD11R,0.0610X0.0512*%
%ADD12R,0.0709X0.0630*%
%ADD13R,0.0800X0.0700*%
%ADD14R,0.0710X0.0630*%
%ADD15R,0.0630X0.0709*%
%ADD16R,0.0866X0.0236*%
%ADD17R,0.0630X0.0710*%
%ADD18R,0.0610X0.0630*%
%ADD19R,0.0669X0.0984*%
%ADD20R,0.0984X0.0669*%
%ADD21R,0.1000X0.0591*%
%ADD22R,0.0394X0.1181*%
%ADD23R,0.0315X0.0354*%
%ADD24R,0.0433X0.0157*%
%ADD25R,0.0500X0.0579*%
%ADD26R,0.1610X0.0450*%
%ADD27R,0.0787X0.0394*%
%ADD28R,0.0394X0.0709*%
%ADD29R,0.0591X0.0197*%
%ADD30R,0.0197X0.0591*%
%ADD31R,0.0551X0.0551*%
D10*
X018717Y004272D03*
X019091Y004272D03*
X019465Y004272D03*
X019465Y005296D03*
X018717Y005296D03*
D11*
X023337Y022036D03*
X023337Y023808D03*
X026467Y023808D03*
X026467Y022036D03*
D12*
X015461Y017981D03*
X015461Y016879D03*
X013560Y014792D03*
X013560Y013690D03*
X009938Y013765D03*
X009938Y014867D03*
X008454Y014910D03*
X008454Y013808D03*
X005383Y020217D03*
X005383Y021320D03*
D13*
X011749Y014882D03*
X011749Y013182D03*
D14*
X008060Y022343D03*
X008060Y023462D03*
X006643Y023462D03*
X006643Y022343D03*
X003532Y027461D03*
X003532Y028580D03*
X001761Y028580D03*
X001761Y027461D03*
X001682Y031437D03*
X001682Y032557D03*
X003296Y032596D03*
X003296Y031476D03*
X024812Y034079D03*
X024812Y035198D03*
X026387Y035206D03*
X026387Y034087D03*
D15*
X021446Y030855D03*
X020343Y030855D03*
X018808Y030737D03*
X017706Y030737D03*
X017509Y027351D03*
X016406Y027351D03*
X014950Y027351D03*
X013847Y027351D03*
X012391Y027351D03*
X011288Y027351D03*
X009792Y027351D03*
X008690Y027351D03*
X006957Y027351D03*
X005855Y027351D03*
X011446Y031485D03*
X012548Y031485D03*
X012548Y033099D03*
X011446Y033099D03*
X017391Y035855D03*
X018493Y035855D03*
X018729Y008257D03*
X019831Y008257D03*
D16*
X021091Y009550D03*
X021091Y010050D03*
X021091Y010550D03*
X021091Y011050D03*
X021091Y011550D03*
X021091Y012050D03*
X021091Y012550D03*
X021091Y013050D03*
X021091Y013550D03*
X021091Y014050D03*
X017469Y014050D03*
X017469Y013550D03*
X017469Y013050D03*
X017469Y012550D03*
X017469Y012050D03*
X017469Y011550D03*
X017469Y011050D03*
X017469Y010550D03*
X017469Y010050D03*
X017469Y009550D03*
D17*
X012557Y029950D03*
X011437Y029950D03*
X014311Y030855D03*
X015431Y030855D03*
X012557Y034635D03*
X011437Y034635D03*
X011437Y036800D03*
X012557Y036800D03*
X014232Y035894D03*
X015352Y035894D03*
X012557Y038769D03*
X011437Y038769D03*
X020374Y035855D03*
X021494Y035855D03*
X024469Y032194D03*
X025588Y032194D03*
X025588Y030698D03*
X024469Y030698D03*
D18*
X024792Y007263D03*
X026761Y007263D03*
X026761Y001770D03*
X024792Y001770D03*
D19*
X021091Y015461D03*
X019595Y015461D03*
D20*
X015973Y013808D03*
X015973Y012312D03*
D21*
X024398Y011249D03*
X024398Y010422D03*
X024398Y009595D03*
X026367Y009595D03*
X026367Y010422D03*
X026367Y011249D03*
D22*
X002190Y010816D03*
X003190Y010816D03*
X004190Y010816D03*
X005190Y010816D03*
D23*
X003572Y029713D03*
X003946Y030540D03*
X003198Y030540D03*
X002213Y030540D03*
X001465Y030540D03*
X001839Y029713D03*
D24*
X017213Y032833D03*
X017213Y033089D03*
X017213Y033345D03*
X017213Y033601D03*
X018985Y033601D03*
X018985Y033345D03*
X018985Y033089D03*
X018985Y032833D03*
D25*
X015678Y032548D03*
X015678Y033887D03*
X013985Y033887D03*
X013985Y032548D03*
D26*
X020894Y032559D03*
X020894Y033719D03*
D27*
X010245Y033536D03*
X010245Y032946D03*
X010245Y032355D03*
X010245Y031765D03*
X010245Y031174D03*
X010245Y030583D03*
X010245Y029993D03*
X010245Y034127D03*
X010245Y034717D03*
X010245Y035308D03*
X010245Y035898D03*
X010245Y036489D03*
X010245Y037080D03*
X005127Y037080D03*
X005127Y036489D03*
X005127Y035898D03*
X005127Y035308D03*
X005127Y034717D03*
X005127Y034127D03*
X005127Y033536D03*
X005127Y032946D03*
X005127Y032355D03*
X005127Y031765D03*
X005127Y031174D03*
X005127Y030583D03*
X005127Y029993D03*
D28*
X005619Y029304D03*
X006209Y029304D03*
X006800Y029304D03*
X007391Y029304D03*
X007981Y029304D03*
X008572Y029304D03*
X009162Y029304D03*
X009753Y029304D03*
D29*
X010115Y021902D03*
X010115Y021587D03*
X010115Y021272D03*
X010115Y020957D03*
X010115Y020643D03*
X010115Y020328D03*
X010115Y020013D03*
X010115Y019698D03*
X010115Y019383D03*
X010115Y019068D03*
X010115Y018753D03*
X014682Y018753D03*
X014682Y019068D03*
X014682Y019383D03*
X014682Y019698D03*
X014682Y020013D03*
X014682Y020328D03*
X014682Y020643D03*
X014682Y020957D03*
X014682Y021272D03*
X014682Y021587D03*
X014682Y021902D03*
D30*
X013973Y022611D03*
X013658Y022611D03*
X013343Y022611D03*
X013028Y022611D03*
X012713Y022611D03*
X012398Y022611D03*
X012083Y022611D03*
X011769Y022611D03*
X011454Y022611D03*
X011139Y022611D03*
X010824Y022611D03*
X010824Y018044D03*
X011139Y018044D03*
X011454Y018044D03*
X011769Y018044D03*
X012083Y018044D03*
X012398Y018044D03*
X012713Y018044D03*
X013028Y018044D03*
X013343Y018044D03*
X013658Y018044D03*
X013973Y018044D03*
D31*
X022627Y031032D03*
X022627Y032528D03*
M02*
