G75*
%MOIN*%
%OFA0B0*%
%FSLAX24Y24*%
%IPPOS*%
%LPD*%
%AMOC8*
5,1,8,0,0,1.08239X$1,22.5*
%
%ADD10C,0.1300*%
%ADD11R,0.0749X0.0670*%
%ADD12R,0.0750X0.0670*%
%ADD13OC8,0.0640*%
%ADD14R,0.2205X0.0434*%
%ADD15R,0.1379X0.0670*%
%ADD16R,0.0257X0.0512*%
%ADD17R,0.0670X0.0750*%
%ADD18R,0.0670X0.0749*%
%ADD19OC8,0.1040*%
%ADD20C,0.0700*%
%ADD21C,0.1340*%
%ADD22C,0.2340*%
%ADD23C,0.0634*%
%ADD24C,0.0591*%
%ADD25C,0.0820*%
%ADD26R,0.0555X0.0555*%
%ADD27C,0.0555*%
D10*
X005028Y022824D03*
X022154Y022863D03*
D11*
X020757Y005426D03*
X020757Y004324D03*
D12*
X024831Y022315D03*
X024831Y023435D03*
X024812Y034091D03*
X024812Y035210D03*
X026387Y035226D03*
X026387Y034106D03*
D13*
X027835Y034170D03*
X027835Y035170D03*
X028835Y035170D03*
X028835Y034170D03*
X028835Y033170D03*
X028835Y032170D03*
X027835Y032170D03*
X027835Y033170D03*
X027835Y031170D03*
X027835Y030170D03*
X027835Y029170D03*
X027835Y028170D03*
X028835Y028170D03*
X028835Y029170D03*
X028835Y030170D03*
X028835Y031170D03*
X028532Y023206D03*
X028532Y022206D03*
X030698Y022245D03*
X030698Y023245D03*
X018296Y037481D03*
X018296Y038481D03*
X002969Y023678D03*
X002969Y022678D03*
X001969Y022678D03*
X001969Y023678D03*
X001969Y021678D03*
X001969Y020678D03*
X002969Y020678D03*
X002969Y021678D03*
X002942Y009150D03*
X001957Y009150D03*
X001957Y008150D03*
X002942Y008150D03*
X006922Y003639D03*
X006922Y002639D03*
X007922Y002639D03*
X007922Y003639D03*
X008922Y003639D03*
X008922Y002639D03*
X009922Y002639D03*
X009922Y003639D03*
X010922Y003639D03*
X010922Y002639D03*
X011922Y002639D03*
X011922Y003639D03*
X012922Y003639D03*
X012922Y002639D03*
X013922Y002639D03*
X013922Y003639D03*
D14*
X015540Y032430D03*
X015540Y033217D03*
D15*
X016249Y034162D03*
X016249Y031485D03*
D16*
X012371Y030973D03*
X012371Y031997D03*
X011997Y031997D03*
X011623Y031997D03*
X011623Y030973D03*
D17*
X024469Y030698D03*
X025588Y030698D03*
X025588Y032194D03*
X024469Y032194D03*
X024823Y011839D03*
X025943Y011839D03*
X025943Y010422D03*
X024823Y010422D03*
X024823Y009005D03*
X025943Y009005D03*
X029547Y007469D03*
X030667Y007469D03*
X030667Y005698D03*
X029547Y005698D03*
D18*
X018847Y005501D03*
X018847Y004123D03*
X017745Y004123D03*
X017745Y005501D03*
X027824Y020658D03*
X028926Y020658D03*
X030146Y020658D03*
X031249Y020658D03*
X031249Y024792D03*
X030146Y024792D03*
X028965Y024792D03*
X027863Y024792D03*
D19*
X028851Y016328D03*
X025851Y016328D03*
D20*
X026269Y036807D03*
X026269Y037587D03*
X025284Y037587D03*
X025284Y036807D03*
D21*
X023406Y038657D03*
X028146Y038657D03*
D22*
X001800Y001800D03*
X020855Y001800D03*
X030658Y001800D03*
X030658Y038729D03*
X020855Y038729D03*
X001800Y038729D03*
D23*
X014556Y038119D03*
X015540Y038119D03*
X016524Y038119D03*
X016524Y039418D03*
X015540Y039419D03*
X014556Y039418D03*
X007194Y006820D03*
X006209Y006820D03*
X005225Y006820D03*
X005225Y005520D03*
X006209Y005520D03*
X007194Y005520D03*
D24*
X004690Y012784D03*
X002690Y012784D03*
X028977Y010422D03*
X029977Y010422D03*
D25*
X002347Y006491D02*
X001567Y006491D01*
X001567Y004511D02*
X002347Y004511D01*
D26*
X006121Y031825D03*
X009121Y031825D03*
D27*
X008121Y031825D03*
X008121Y030825D03*
X009121Y030825D03*
X007121Y030825D03*
X007121Y031825D03*
X006121Y030825D03*
M02*
