%
M48
M72
T01C0.0197
T02C0.0315
T03C0.0360
T04C0.0394
T05C0.0400
T06C0.0520
T07C0.0551
T08C0.0900
T09C0.1260
%
T01
X5146Y1446
X7902Y7745
X6682Y8532
X6328Y9635
X8099Y11761
X7784Y12509
X5776Y13020
X6288Y14910
X7666Y16209
X9202Y17706
X10146Y17627
X10225Y18178
X8690Y18769
X8493Y19831
X6839Y19383
X5028Y18493
X4871Y17154
X3690Y19398
X4398Y24595
X3690Y24792
X3887Y26603
X3296Y26603
X1761Y26485
X2036Y29241
X2863Y29320
X4477Y30520
X4989Y29320
X6406Y26446
X5776Y26091
X6446Y25383
X7784Y26524
X8414Y28296
X7824Y28493
X8926Y28060
X9753Y28572
X10776Y28493
X11761Y28060
X13887Y28414
X15068Y28335
X16131Y28454
X16091Y29398
X16643Y30225
X17272Y28414
X18296Y28769
X19517Y28178
X20698Y29044
X23335Y29359
X23532Y31367
X21839Y33099
X21446Y34517
X22312Y35658
X22627Y34635
X24005Y35422
X24083Y34635
X25580Y35225
X26564Y35816
X23808Y37469
X19477Y35855
X19753Y33690
X18375Y33099
X16091Y35894
X15127Y34300
X13454Y34556
X12587Y35698
X12902Y36052
X13257Y37902
X11997Y33887
X11131Y34005
X11328Y32430
X11288Y30619
X13020Y30776
X14398Y30028
X13139Y25855
X12528Y25678
X12115Y25265
X11918Y24674
X11013Y23769
X10107Y24398
X8847Y23493
X8414Y24674
X11249Y21997
X11446Y21446
X11643Y20894
X12391Y20737
X13178Y21446
X14517Y22706
X13769Y23769
X15816Y23020
X15698Y21957
X16288Y21446
X16780Y21150
X17627Y21131
X18769Y22115
X20068Y22076
X21209Y23887
X20225Y24595
X18611Y24398
X17902Y23650
X16564Y23650
X15894Y24595
X15737Y25225
X16879Y25658
X18099Y25658
X21761Y20698
X21249Y19753
X22784Y17469
X23414Y18060
X24477Y19359
X24831Y21367
X24831Y24359
X22587Y24595
X19438Y19320
X17706Y18060
X17548Y16997
X17627Y16328
X16761Y15186
X16918Y14556
X18965Y13572
X19635Y13572
X19871Y12469
X19792Y11013
X20265Y10186
X19280Y9241
X18454Y10146
X16052Y11170
X14477Y10776
X15855Y8926
X14989Y8335
X15028Y6485
X16682Y5501
X17312Y3296
X18847Y2666
X19950Y4910
X21839Y5422
X23414Y7154
X23493Y8769
X20776Y8257
X24005Y12391
X24823Y12745
X26839Y12036
X27509Y10422
X26800Y8690
X27686Y8001
X26406Y5737
X21918Y12587
X21918Y14556
X23099Y16446
X28414Y13335
X29083Y13611
X29477Y14044
X29871Y14753
X30698Y19438
X29831Y19792
X29123Y19674
X27981Y26721
X25580Y30068
X25580Y31485
X17824Y36564
X9241Y35737
X9241Y35186
X8532Y35068
X8139Y34595
X8493Y36524
X7036Y36485
X6249Y34477
X4359Y33808
X3335Y33493
X3099Y35737
X3965Y36524
X11879Y19320
X12902Y16485
X14359Y18099
X13808Y12942
X12902Y7863
X9792Y8611
X9280Y9320
T02
X9121Y30155
X9121Y31155
X9111Y32017
X9111Y33017
X8111Y33017
X7111Y33017
X6111Y33017
X6111Y32017
X6121Y31155
X6121Y30155
X7121Y30155
X7121Y31155
X7111Y32017
X8111Y32017
X8121Y31155
X8121Y30155
X28977Y10422
X29977Y10422
T03
X26269Y36807
X26269Y37587
X25284Y37587
X25284Y36807
T04
X16524Y38119
X15540Y38119
X14556Y38119
X14556Y39418
X15540Y39419
X16524Y39418
X7194Y6820
X6209Y6820
X5225Y6820
X5225Y5520
X6209Y5520
X7194Y5520
T05
X6922Y3639
X6922Y2639
X7922Y2639
X7922Y3639
X8922Y3639
X8922Y2639
X9922Y2639
X9922Y3639
X10922Y3639
X10922Y2639
X11922Y2639
X11922Y3639
X12922Y3639
X12922Y2639
X13922Y2639
X13922Y3639
X2942Y8150
X2942Y9150
X1957Y9150
X1957Y8150
X1969Y20678
X1969Y21678
X1969Y22678
X1969Y23678
X2969Y23678
X2969Y22678
X2969Y21678
X2969Y20678
X18296Y37481
X18296Y38481
X27835Y35170
X27835Y34170
X27835Y33170
X27835Y32170
X27835Y31170
X27835Y30170
X27835Y29170
X27835Y28170
X28835Y28170
X28835Y29170
X28835Y30170
X28835Y31170
X28835Y32170
X28835Y33170
X28835Y34170
X28835Y35170
X28532Y23206
X28532Y22206
X30698Y22245
X30698Y23245
X28851Y16328
X25851Y16328
T06
X1957Y6491
X1957Y4511
T07
X2690Y12784
X4690Y12784
T08
X23406Y38657
X28146Y38657
T09
X1800Y1800
X13572Y6485
X20855Y1800
X30658Y1800
X22154Y22863
X20855Y38729
X30658Y38729
X5028Y22824
X1800Y38729
M30
